<?xml version='1.0' encoding='utf-8'?>
<svg xmlns="http://www.w3.org/2000/svg" clip-rule="evenodd" fill-rule="evenodd" image-rendering="optimizeQuality" shape-rendering="geometricPrecision" text-rendering="geometricPrecision" viewBox="0 0 732 701"> <defs> <style type="text/css">.fil0 {fill:url(#a)}</style> <radialGradient id="a" cx="373.32" cy="385.55" r="248.93" gradientUnits="userSpaceOnUse"> <stop stop-color="#f06" offset="0"/> <stop stop-color="#909" offset=".58039"/> <stop stop-color="#f06" offset="1"/> </radialGradient> </defs> <path class="fil0" d="m302.25 306.06c-63.024 36.112-109.56 90.476-139.22 153.37-17.988 38.147-62.118 199.44-29.426 230.12 35.974 33.754 175.16-53.632 216.05-89.682-12.698-13.433-24.332-27.634-35.016-42.694-34.186 30.926-75.154 54.441-120.34 68.073 4.6382-74.823 21.067-142.11 77.353-206.19 19.504 93.249 76.427 169.41 154.46 220.71 28.446 18.48 129.97 71.209 157.97 59.541 44.999-18.746 5.7449-178.85-18.361-234.55-16.697 7.9252-33.798 14.601-51.424 20.108 18.847 42.07 28.552 88.298 27.555 135.49-73.407-28.704-131.25-68.34-172.2-137.28 94.713 10.266 184.73-20.341 257.64-78.7 26.196-21.207 114.32-105.5 103.93-136.79-15.42-46.437-173.48-55.153-227.23-50.067 2.3787 18.327 3.4394 36.659 3.2339 55.121 45.834-4.924 92.796 0.12756 137.37 15.661-47.394 57.8-101.63 102.82-183.77 121.34 39.03-86.904 37.742-181.98 4.7646-269.35-11.913-31.045-63.994-137.94-95.017-140.2-48.787-3.5587-109 146.89-120.8 199.72 18.172 3.4016 35.924 8.0563 53.422 13.958 9.4807-45.113 28.8-88.216 57.345-125.81 40.309 62.993 66.402 128.25 58.617 212.28-75.413-68.348-174.89-94.838-272.68-86.707-26.734 2.2216-127.42 19.442-142.48 41.804-28.78 42.732 102.29 152.35 150.38 180.78 8.8512-16.233 18.761-31.672 29.782-46.494-39.976-22.957-74.998-54.651-101.93-93.413 72.589-18.713 141.68-23.866 220 9.8516zm-12.324 94.129c18.223-16.996 31.62-24.399 31.241-24.136 2.2264-18.068 4.063-37.639 4.6689-58.443 21.795 12.08 32.974 22.533 32.607 22.253 17.874-3.4642 37.055-7.7681 57.028-13.622-4.7551 24.459-11.241 38.324-11.089 37.889 8.8181 15.927 18.836 32.841 30.574 50.027-24.728 3.0354-39.918 1.1516-39.456 1.1622-12.425 13.308-25.413 28.062-38.131 44.538-10.531-22.582-13.433-37.609-13.3-37.168-16.495-7.7032-34.542-15.496-54.143-22.5z"/> </svg>